<svg xmlns="http://www.w3.org/2000/svg" xmlns:xlink="http://www.w3.org/1999/xlink" version="1.1" id="Group_268" x="0px" y="0px" viewBox="0 0 44.7 44.7" style="enable-background:new 0 0 44.7 44.7;" xml:space="preserve" class="mdl-js">
<style type="text/css">
	.st0{fill:#487FC2;}
	.st1{fill:#FCFDFD;}
</style>
<path id="Path_475" class="st0" d="M19.2,35.6c-0.5-0.2-1.1-0.2-1.6-0.1c-0.8,0.2-1.6,0.4-2.4,0.7c-2.3,0.8-4.7,1-7.1,0.6l0,0  c-0.2-0.1-0.3-0.2-0.1-0.3c0.1-0.1,0.3-0.2,0.4-0.3c1.3-0.7,2.4-1.8,3.2-3c0.6-0.7,0.6-1.8-0.2-2.4c0,0-0.1-0.1-0.1-0.1  c-4.5-4.2-6.5-10.3-5.5-16.3c0.6-3.5,2.2-6.8,4.6-9.4c1.2-1.3,2.5-2.4,4-3.4C2.8,6-2.9,18.9,1.5,30.4s17.4,17.3,28.9,12.8  C36.1,41,40.6,36.6,43,31c-1.8,1.6-3.8,2.9-6,3.9C31.4,37.5,25,37.7,19.2,35.6z"/>
<path class="st1" d="M44.7,22.4C44.7,10,34.7,0,22.3,0c-2.3,0-4.6,0.4-6.7,1l0.2,0.2L15.6,1c-0.4,0.1-0.9,0.3-1.3,0.5  c-1.5,1-2.8,2.1-4,3.4c-2.4,2.6-4,5.9-4.6,9.4c-1,6,1,12.2,5.5,16.3c0.8,0.6,0.9,1.7,0.4,2.4c0,0-0.1,0.1-0.1,0.1  c-0.8,1.2-1.9,2.3-3.2,3c-0.1,0.1-0.3,0.2-0.4,0.3c-0.2,0.2-0.1,0.3,0.1,0.3c2.4,0.4,4.8,0.2,7.1-0.6c0.8-0.2,1.6-0.5,2.4-0.7  c0.5-0.1,1.1-0.1,1.6,0.1c5.8,2.1,12.2,1.9,17.9-0.7c2.2-1,4.2-2.3,6-3.9c0.3-0.8,0.6-1.6,0.8-2.4l0,0  C44.4,26.6,44.7,24.5,44.7,22.4z"/>
<path id="Path_477" class="st0" d="M14.2,23.2c1.5,0,2.9,0,4.3,0c0.8,0,1.2,0.3,1.3,1c0.1,0.6-0.3,1.2-0.9,1.3c-0.1,0-0.2,0-0.3,0  c-1.6,0-3.2,0-4.8,0c-0.5,0-0.9,0-1.4,0c-0.6,0.1-1.1-0.2-1.4-0.7c-0.2-0.6-0.1-1.2,0.3-1.6c1.5-2,3.1-3.9,4.6-5.9  c0.1-0.1,0.2-0.2,0.3-0.3c-0.1-0.2-0.2-0.1-0.4-0.1c-1.1,0-2.2,0-3.2,0c-0.2,0-0.5,0-0.7-0.1c-0.6-0.1-0.9-0.7-0.8-1.3  c0.1-0.4,0.4-0.7,0.8-0.8c0.2-0.1,0.5-0.1,0.7-0.1c1.8,0,3.6,0,5.3,0c0.3,0,0.6,0,0.9,0.1c0.6,0.2,0.9,0.8,0.8,1.3  c0,0.1,0,0.1-0.1,0.2c-0.3,0.6-0.6,1.1-1,1.5c-1.3,1.7-2.6,3.3-3.9,5C14.5,22.8,14.4,22.9,14.2,23.2L14.2,23.2z"/>
<path id="Path_478" class="st0" d="M25.8,17.9c0.2-0.3,0.5-0.6,0.9-0.7c0.7-0.2,1.3,0.2,1.5,0.9c0,0.1,0,0.2,0,0.3c0,2,0,4,0,6  c0,0.5-0.3,1-0.8,1.1c-0.5,0.2-1.1,0-1.4-0.4c-0.2-0.2-0.2-0.2-0.5-0.1c-0.8,0.7-2,0.9-3,0.5c-1.6-0.5-2.7-2-2.7-3.7  c-0.3-1.7,0.5-3.5,2-4.3C23.1,16.7,24.7,16.9,25.8,17.9L25.8,17.9z M22.3,21.6c0,0.4,0.2,0.9,0.4,1.2c0.5,0.7,1.6,0.9,2.3,0.3  c0.1-0.1,0.2-0.2,0.3-0.3c0.6-0.8,0.6-1.9,0-2.8c-0.3-0.4-0.7-0.6-1.2-0.6C23,19.3,22.3,20.1,22.3,21.6L22.3,21.6z M32.7,21.6  c-0.1-2.3,1.8-4.3,4.1-4.4c2.3-0.1,4.3,1.8,4.4,4.1c0.1,2.2-1.6,4.1-3.9,4.3c-2.2,0.3-4.3-1.2-4.6-3.5  C32.8,22.1,32.7,21.8,32.7,21.6z M35.3,21.4c0,0.5,0.1,1,0.4,1.4c0.5,0.7,1.6,0.9,2.3,0.3c0,0,0,0,0,0c0.1-0.1,0.2-0.2,0.3-0.3  c0.6-0.8,0.6-2,0-2.8c-0.3-0.4-0.7-0.6-1.2-0.6c-1,0-1.8,0.7-1.9,1.7C35.2,21.2,35.2,21.3,35.3,21.4L35.3,21.4z M31.9,19.6  c0,1.5,0,3.1,0,4.6c0,0.7-0.5,1.3-1.3,1.3c-0.1,0-0.2,0-0.4,0c-0.5-0.2-0.9-0.7-0.9-1.3v-7.9c0-0.5,0-0.9,0-1.4  c0-0.7,0.6-1.2,1.3-1.2c0.7,0,1.2,0.6,1.2,1.3C31.9,16.5,31.9,18.1,31.9,19.6L31.9,19.6z"/>
</svg>